<svg xmlns="http://www.w3.org/2000/svg" viewBox="0 0 24 24" aria-hidden="true">
  <path fill="#7360F2" d="M11.398.002C9.473.028 5.331.344 3.014 2.467 1.294 4.177.693 6.698.623 9.82c-.071 3.122-.165 8.987 5.546 10.541v2.42s-.037.906.564.546c.602-.359 3.864-2.424 5.096-4.137 1.398.204 2.846.312 4.171.312 6.423 0 11.662-5.236 11.662-11.662C23.662 5.237 18.425.002 11.398.002zm6.785 15.424c-.183.516-1.083 1.003-1.503 1.072-.385.064-.877.091-1.414-.088-.324-.111-.741-.262-1.274-.511-2.246-1.095-3.707-3.657-3.818-3.831-.111-.174-.912-1.212-.912-2.313 0-1.101.578-1.643.783-1.867.205-.224.447-.28.596-.28.149 0 .298.001.428.008.137.008.321-.052.502.383.183.436.623 1.523.678 1.633.055.111.091.241.018.388-.074.149-.111.241-.223.372-.111.131-.234.292-.334.392-.111.111-.227.232-.098.455.129.223.573.945 1.231 1.531.845.753 1.557.987 1.779 1.098.223.111.352.093.482-.055.129-.149.557-.649.705-.872.149-.223.298-.186.502-.111.205.074 1.301.614 1.524.725.223.111.372.167.428.26.055.093.055.541-.128 1.057z"/>
</svg>
